<svg width="100" height="100" viewBox="0 0 24 24" fill="none" xmlns="http://www.w3.org/2000/svg">
  <defs>
    <linearGradient id="logoGradient" x1="0%" y1="0%" x2="100%" y2="0%">
      <stop offset="0%" style="stop-color:#c026d3;stop-opacity:1;" />
      <stop offset="50%" style="stop-color:#a21caf;stop-opacity:1;" />
      <stop offset="100%" style="stop-color:#86198f;stop-opacity:1;" />
    </linearGradient>
  </defs>
  <path d="M12 5a3 3 0 1 1 3 3m-3-3a3 3 0 1 0-3 3m3-3v1M9 8a3 3 0 1 0 3 3M9 8h1m5 0a3 3 0 1 1-3 3m3-3h-1m-2 3v-1" stroke="url(#logoGradient)" stroke-width="2" stroke-linecap="round" stroke-linejoin="round" />
  <circle cx="12" cy="8" r="2" stroke="url(#logoGradient)" stroke-width="2" fill="none" />
  <path d="M12 10v12" stroke="url(#logoGradient)" stroke-width="2" stroke-linecap="round" />
  <path d="M12 22c4.2 0 7-1.667 7-5-4.2 0-7 1.667-7 5Z" stroke="url(#logoGradient)" stroke-width="2" stroke-linecap="round" stroke-linejoin="round" />
  <path d="M12 22c-4.2 0-7-1.667-7-5 4.2 0 7 1.667 7 5Z" stroke="url(#logoGradient)" stroke-width="2" stroke-linecap="round" stroke-linejoin="round" />
</svg>
